<?xml version="1.0" encoding="utf-8"?>
<!-- Generator: Adobe Illustrator 27.5.0, SVG Export Plug-In . SVG Version: 6.00 Build 0)  -->
<svg version="1.1" id="Landscape" xmlns="http://www.w3.org/2000/svg" xmlns:xlink="http://www.w3.org/1999/xlink" x="0px" y="0px"
	 viewBox="0 0 6400 3600" style="enable-background:new 0 0 6400 3600;" xml:space="preserve">
<g id="Sky">
	<path style="fill:#DCFFFD;" d="M2290.459,2208.813v-775.164C4026.998,1068.389,6400,1190.143,6400,1190.143v1018.671H2290.459z"/>
	<path style="fill:#B8FFFF;" d="M2290.459,666.275v767.375C4026.998,1068.389,6400,1190.143,6400,1190.143V686.894
		C4876.545,569.14,2771.363,635.924,2290.459,666.275z"/>
	<path style="fill:#9FFFFA;" d="M6400,0H2280.313v666.275c480.904-30.351,2596.232-97.135,4119.688,20.62V0z"/>
</g>
<polygon id="City_x5F_02" style="fill:#C3EADD;" points="6064.789,1185.484 6064.789,1563.409 5980.806,1563.409 5980.806,1071.508 
	5782.846,1143.493 5782.846,1467.428 5681.832,1452.415 5394.553,1452.415 5394.553,1123.747 5181.527,1233.303 5181.527,1464.588 
	4986.76,1464.588 4986.76,1227.216 4883.291,1154.179 4785.907,1215.043 4785.907,1781.084 4566.795,1781.084 4566.795,1470.675 
	4317.25,1470.675 4317.25,1075.055 4073.791,1056.795 4098.137,1689.787 3891.174,1688.733 3848.592,1002.018 3611.057,1051.031 
	3605.134,1464.588 3446.887,1440.242 3459.059,916.807 3185.168,1050.709 3185.168,1507.193 3057.353,1507.193 3051.266,1068.968 
	2874.759,1068.968 2874.759,1726.306 2710.425,1732.393 2716.511,1257.648 2613.041,1184.611 2619.127,935.066 2400.015,868.115 
	2393.929,2197.483 5681.832,2197.483 6400,2197.483 6400,1485.425 "/>
<polygon id="City_x5F_01" style="fill:#B4DBCF;" points="6281,1165 6281,1885 6209,1885 6209,1609 6169,1609 6169,1465 5917,1405 
	5917,1877 5789,1881 5785,1301 5681.832,1232.126 5583.232,1351.233 5583.232,1817.305 5510.195,1817.305 5510.195,1677.482 
	5199.785,1620.519 5199.785,1387.483 4919.809,1392.662 4919.809,1869.09 4712.869,1869.09 4700.697,1693.019 4512.017,1682.661 
	4518.103,1423.733 4262.472,1320.162 4262.472,1548.019 4061.618,1594.625 4061.618,2039.982 3958.148,2039.982 3952.063,1480.697 
	3757.295,1485.876 3757.295,1258.019 3489.491,1190.697 3489.491,2055.518 3282.552,2050.34 3239.946,1221.769 3002.574,1258.019 
	3002.574,1770.697 2929.537,1770.697 2929.537,1615.34 2789.548,1615.34 2801.722,1434.09 2570.436,1392.662 2546.09,1718.911 
	2345.237,1718.911 2344.538,2197.483 5681.832,2197.483 6400,2197.483 6400,1073 "/>
<g id="Cloud_x5F_01">
	<path style="fill:#FFFFFF;" d="M3925.537,492.089c-105.52,8.117-113.637,81.169-113.637,81.169
		c848.217-77.11,1850.654,44.643,1850.654,44.643c-52.76-129.871-231.332-77.111-231.332-77.111
		c-40.585-133.929-142.046-60.876-142.046-60.876c16.233-158.28-142.046-64.935-142.046-64.935
		c97.402-198.864-89.285-129.871-89.285-129.871c-223.215-243.507-580.359,129.871-580.359,129.871
		c-154.221-117.695-170.455,48.701-170.455,48.701c-125.812-81.169-223.215,48.702-223.215,48.702
		C4010.765,471.796,3925.537,492.089,3925.537,492.089z"/>
	<path style="fill:#FFFDB8;" d="M3811.9,573.258c848.217-77.11,1850.654,44.643,1850.654,44.643
		c-75.108-94.706-231.332-77.111-231.332-77.111c-73.574-116.515-143.58-41.944-143.58-41.944
		c-2.524-132.569-129.355-86.745-129.355-86.745c1.02-167.577-122.764-98.583-122.764-98.583
		c-241.973-203.247-551.949,140.017-551.949,140.017c-111.607-129.871-174.476,16.397-174.476,16.397
		c-123.82-50.894-223.253,58.684-223.253,58.684C4012.794,488.03,3811.9,573.258,3811.9,573.258z"/>
</g>
<g id="Cloud_x5F_02">
	<path style="fill:#FFFFFF;" d="M2933.239,725.501c-58.848,2.029-91.315,54.789-91.315,54.789
		c393.67-34.497,779.223,14.205,779.223,14.205c22.321-58.848-103.491-32.467-103.491-32.467
		c62.906-97.403-87.256-54.789-87.256-54.789c-56.818-231.331-135.959-89.286-135.959-89.286
		c-50.729-188.718-160.309,10.146-160.309,10.146c-62.906-34.497-85.227,95.374-85.227,95.374
		C2963.677,654.478,2933.239,725.501,2933.239,725.501z"/>
	<path style="fill:#FFFDB8;" d="M2937.297,747.822c-58.848,2.029-95.373,32.468-95.373,32.468
		c393.67-34.497,779.223,14.205,779.223,14.205c-8.117-44.643-103.491-32.467-103.491-32.467
		c34.497-87.257-99.432-42.614-99.432-42.614c-56.818-231.332-127.841-83.198-127.841-83.198
		c-50.731-188.718-148.134,10.147-148.134,10.147c-62.906-34.497-89.286,95.374-89.286,95.374
		C2967.735,672.741,2937.297,747.822,2937.297,747.822z"/>
</g>
<g id="Grass">
	<g id="Grass_3_">
		<rect x="0.001" y="3194.156" style="fill:#7EB741;" width="5681.832" height="405.844"/>
		<path style="fill:#6EA01F;" d="M5681.832,3194.156H5159.18c-529.672,77.762-1221.768,306.035-1730.553,297.263
			C2722.598,3479.246,0,3600,0,3600h6400L5681.832,3194.156z"/>
		<g>
			<path style="fill:#AAD63E;" d="M2031.565,3194.156c104.847,44.84,214.821,107.263,429.314,102.496
				c142.729-3.172,414.382-54.276,641.83-102.496H2031.565z"/>
			<path style="fill:#AAD63E;" d="M0,3194.156v224.226c386.135-95.368,931.494-178.437,1348.593-224.226H0z"/>
		</g>
		<path style="fill:#618C0E;" d="M281.927,3554.313c0,13.445-51.775,24.346-115.642,24.346c-63.868,0-115.643-10.9-115.643-24.346
			c0-13.446,51.775-24.347,115.643-24.347C230.152,3529.967,281.927,3540.867,281.927,3554.313z"/>
		<path style="fill:#AAD63E;" d="M804.202,3406.487c0,17.653-32.71,31.964-73.06,31.964s-73.06-14.311-73.06-31.964
			c0-17.652,32.71-31.963,73.06-31.963S804.202,3388.835,804.202,3406.487z"/>
		<path style="fill:#AAD63E;" d="M916.835,3371.48c0,8.406-14.311,15.221-31.964,15.221c-17.653,0-31.963-6.814-31.963-15.221
			s14.311-15.221,31.963-15.221C902.524,3356.26,916.835,3363.074,916.835,3371.48z"/>
		<ellipse style="fill:#AAD63E;" cx="1947.277" cy="3229.928" rx="41.096" ry="10.654"/>
		<ellipse style="fill:#AAD63E;" cx="4241.168" cy="3262.163" rx="155.205" ry="30.433"/>
		<path style="fill:#AAD63E;" d="M4037.272,3313.898c0,11.765-19.075,21.302-42.605,21.302s-42.604-9.537-42.604-21.302
			c0-11.766,19.074-21.303,42.604-21.303S4037.272,3302.133,4037.272,3313.898z"/>
		<path style="fill:#AAD63E;" d="M3952.063,3234.773c0,11.766-21.801,21.303-48.692,21.303s-48.691-9.537-48.691-21.303
			c0-11.765,21.8-21.303,48.691-21.303S3952.063,3223.009,3952.063,3234.773z"/>
		<path style="fill:#618C0E;" d="M5017.192,3484.318c0,18.488-59.95,33.476-133.901,33.476c-73.953,0-133.903-14.987-133.903-33.476
			c0-18.487,59.95-33.475,133.903-33.475C4957.242,3450.844,5017.192,3465.831,5017.192,3484.318z"/>
		<ellipse style="fill:#618C0E;" cx="5507.152" cy="3545.184" rx="118.686" ry="33.476"/>
		<ellipse style="fill:#618C0E;" cx="5278.91" cy="3569.529" rx="42.605" ry="15.216"/>
		<path style="fill:#618C0E;" d="M5193.699,3420.411c0,13.445-27.25,24.346-60.863,24.346c-33.615,0-60.865-10.9-60.865-24.346
			c0-13.446,27.25-24.346,60.865-24.346C5166.449,3396.065,5193.699,3406.965,5193.699,3420.411z"/>
		<path style="fill:#618C0E;" d="M3367.762,3563.442c0,8.403-46.324,15.217-103.47,15.217c-57.145,0-103.47-6.813-103.47-15.217
			s46.325-15.216,103.47-15.216C3321.438,3548.227,3367.762,3555.039,3367.762,3563.442z"/>
	</g>
	<g id="Grass_1_">
		<polygon style="fill:#7EB741;" points="4153.465,2477.01 0,2477.01 0,2668.773 4533.836,2668.773 		"/>
		<path style="fill:#6EA01F;" d="M1506.694,2668.773c-167.716-65.644-312.928-121.438-506.328-124.813
			c-200.667-3.502-387.937,65.548-510.79,124.813H1506.694z"/>
		<path style="fill:#6EA01F;" d="M4211.764,2506.401c-651.315-40.465-1107.25,61.644-1450.608,162.372h1772.681L4211.764,2506.401z"
			/>
		<path style="fill:#AAD63E;" d="M758.839,2477.01H133.816c37.029,48.396,89.682,87.032,164.053,91.297
			C423.465,2575.51,584.453,2535.828,758.839,2477.01z"/>
		<path style="fill:#AAD63E;" d="M2845.119,2514.615c163.901-2.951,306.02,1.018,347.868-5.477
			c180.914-28.072,793.946-26.425,935.473-26.38l-529.572-285.281h-713.941l287.491,247.904h-862.858
			C2450.232,2491.578,2663.316,2517.889,2845.119,2514.615z"/>
	</g>
</g>
<g id="Asphalt_1_">
	<polygon id="Asphalt" style="fill:#929496;" points="4497.779,2229.105 4497.779,2197.477 3598.886,2197.477 4715.344,2760.281 
		0,2760.281 0,3166.126 6400,3166.126 6400,2477.887 	"/>
	<rect y="2760.28" style="fill:#7C8793;" width="5134.979" height="45.398"/>
	<path style="fill:#7C8793;" d="M6400,2477.887l-1902.221-248.781v-31.629h-898.893l463.025,233.41
		c28.415-12.721,312.95-104.543,1288.145-49.063L6400,2576.896V2477.887z"/>
	<path style="fill:#A0A2A3;" d="M3885.104,2906.867H37.542c-20.089,0-36.526-16.437-36.526-36.526l0,0
		c0-20.089,16.437-36.525,36.526-36.525h3847.562c20.09,0,36.526,16.437,36.526,36.525l0,0
		C3921.63,2890.431,3905.193,2906.867,3885.104,2906.867z"/>
	<g>
		<path style="fill:#EAF0F9;" d="M113.637,2955.568H37.542c-11.208,0-20.292-9.085-20.292-20.292s9.085-20.292,20.292-20.292h76.096
			c11.208,0,20.293,9.085,20.293,20.292S124.845,2955.568,113.637,2955.568z"/>
		<path style="fill:#EAF0F9;" d="M3891.476,2955.568h-157.411c-11.207,0-20.292-9.085-20.292-20.292s9.085-20.292,20.292-20.292
			h157.411c11.207,0,20.292,9.085,20.292,20.292S3902.683,2955.568,3891.476,2955.568z M3471.715,2955.568h-157.409
			c-11.208,0-20.292-9.085-20.292-20.292s9.084-20.292,20.292-20.292h157.409c11.207,0,20.293,9.085,20.293,20.292
			S3482.922,2955.568,3471.715,2955.568z M3051.956,2955.568h-157.41c-11.207,0-20.292-9.085-20.292-20.292
			s9.085-20.292,20.292-20.292h157.41c11.207,0,20.292,9.085,20.292,20.292S3063.163,2955.568,3051.956,2955.568z
			 M2632.196,2955.568h-157.41c-11.207,0-20.292-9.085-20.292-20.292s9.085-20.292,20.292-20.292h157.41
			c11.207,0,20.292,9.085,20.292,20.292S2643.403,2955.568,2632.196,2955.568z M2212.436,2955.568h-157.41
			c-11.207,0-20.292-9.085-20.292-20.292s9.085-20.292,20.292-20.292h157.41c11.208,0,20.292,9.085,20.292,20.292
			S2223.644,2955.568,2212.436,2955.568z M1792.676,2955.568h-157.41c-11.207,0-20.292-9.085-20.292-20.292
			s9.085-20.292,20.292-20.292h157.41c11.207,0,20.292,9.085,20.292,20.292S1803.883,2955.568,1792.676,2955.568z
			 M1372.917,2955.568h-157.41c-11.207,0-20.292-9.085-20.292-20.292s9.085-20.292,20.292-20.292h157.41
			c11.208,0,20.292,9.085,20.292,20.292S1384.124,2955.568,1372.917,2955.568z M953.157,2955.568h-157.41
			c-11.207,0-20.292-9.085-20.292-20.292s9.085-20.292,20.292-20.292h157.41c11.207,0,20.292,9.085,20.292,20.292
			S964.364,2955.568,953.157,2955.568z M533.398,2955.568h-157.41c-11.208,0-20.293-9.085-20.293-20.292s9.085-20.292,20.293-20.292
			h157.41c11.206,0,20.292,9.085,20.292,20.292S544.604,2955.568,533.398,2955.568z"/>
	</g>
	<g>
		<polygon style="fill:#EAF0F9;" points="5220.703,2823.201 4587.209,2823.201 4535.051,2797.156 5135.051,2797.156 		"/>
		<polygon style="fill:#EAF0F9;" points="5355.389,2864.154 4669.227,2864.154 4608.303,2833.733 5255.342,2833.733 		"/>
		<polygon style="fill:#EAF0F9;" points="5530.405,2917.371 4775.805,2917.371 4702.537,2880.787 5410.09,2880.787 		"/>
		<polygon style="fill:#EAF0F9;" points="5764.18,2988.455 4918.162,2988.455 4826.759,2942.814 5614.08,2942.814 		"/>
		<polygon style="fill:#EAF0F9;" points="6088.783,3087.156 5115.832,3087.156 4996.188,3027.415 5892.311,3027.415 		"/>
	</g>
	<g>
		<g>
			<path style="fill:#EAF0F9;" d="M4174.364,2211.42c-0.837-0.003-1.688-0.108-2.537-0.326l-19.613-5.018
				c-5.376-1.376-8.603-6.756-7.231-11.993c1.363-5.205,6.769-8.325,12.092-6.997l19.428,4.854
				c5.405,1.351,8.783,6.718,7.522,12.014C4182.953,2208.448,4178.89,2211.436,4174.364,2211.42z"/>
		</g>
		<g>
			<path style="fill:#EAF0F9;" d="M6348.311,2767.509c-1.814-0.117-3.883-0.462-6.193-1.052l-104.416-26.721
				c-14.199-3.634-32.013-15.572-39.785-26.586c-7.695-10.908-2.672-16.869,11.193-13.41l102.02,25.487
				c14.482,3.619,33.262,15.739,41.951,27.155C6360.477,2762.104,6358.146,2768.143,6348.311,2767.509z M6065,2695.039
				c-1.668-0.098-3.549-0.403-5.625-0.935l-94.088-24.075c-12.81-3.279-28.174-14.223-34.324-24.375
				c-6.091-10.059-0.863-15.613,11.67-12.486l92.091,23.006c13.062,3.264,29.258,14.36,36.177,24.86
				C6076.789,2689.974,6074.038,2695.564,6065,2695.039z M5809.316,2629.635c-1.54-0.08-3.258-0.353-5.138-0.833l-85.217-21.806
				c-11.613-2.973-24.903-13.053-29.696-22.453c-4.748-9.319,0.633-14.512,12.01-11.673l83.542,20.87
				c11.838,2.958,25.851,13.168,31.294,22.873C5820.742,2624.871,5817.662,2630.071,5809.316,2629.635z M5577.41,2570.315
				c-1.428-0.066-3.006-0.312-4.715-0.748l-77.547-19.845c-10.576-2.706-22.098-12.032-25.748-20.773
				c-3.617-8.664,1.852-13.539,12.243-10.95l76.133,19.021c10.778,2.693,22.933,12.131,27.136,21.138
				C5588.487,2565.819,5585.148,2570.676,5577.41,2570.315z M5366.109,2516.265c-1.33-0.055-2.784-0.274-4.346-0.674l-70.865-18.133
				c-9.674-2.476-19.676-11.136-22.36-19.292c-2.661-8.093,2.886-12.681,12.39-10.31l69.668,17.403
				c9.855,2.463,20.416,11.22,23.572,19.612C5376.852,2512.009,5373.314,2516.561,5366.109,2516.265z M5172.783,2466.813
				c-1.243-0.045-2.588-0.243-4.02-0.609l-65.012-16.635c-8.881-2.273-17.573-10.344-19.436-17.982
				c-1.846-7.579,3.732-11.913,12.472-9.733l63.991,15.986c9.046,2.261,18.232,10.415,20.502,18.263
				C5183.209,2462.773,5179.516,2467.053,5172.783,2466.813z M4995.234,2421.396c-1.166-0.035-2.414-0.216-3.732-0.553
				l-59.854-15.316c-8.184-2.094-15.738-9.641-16.897-16.814c-1.151-7.121,4.44-11.231,12.501-9.215l58.982,14.735
				c8.332,2.082,16.328,9.703,17.84,17.064C5005.358,2417.554,5001.545,2421.59,4995.234,2421.396z M4831.605,2379.541
				c-1.096-0.028-2.26-0.192-3.475-0.503l-55.288-14.147c-7.563-1.936-14.128-9.013-14.687-15.771
				c-0.553-6.711,5.033-10.605,12.491-8.746l54.54,13.625c7.699,1.924,14.658,9.066,15.521,15.992
				C4841.441,2375.876,4837.54,2379.693,4831.605,2379.541z M4680.322,2340.843c-1.033-0.022-2.121-0.171-3.246-0.459
				l-51.225-13.107c-7.012-1.794-12.709-8.45-12.75-14.833c-0.037-6.338,5.529-10.044,12.449-8.318l50.58,12.636
				c7.135,1.782,13.187,8.496,13.493,15.03C4689.883,2337.341,4685.916,2340.96,4680.322,2340.843z M4540.038,2304.959
				c-0.977-0.016-1.995-0.152-3.041-0.42l-47.593-12.18c-6.518-1.667-11.453-7.942-11.046-13.984
				c0.406-6.002,5.94-9.535,12.38-7.931l47.036,11.751c6.633,1.658,11.886,7.984,11.712,14.163
				C4549.338,2301.606,4545.326,2305.046,4540.038,2304.959z M4409.596,2271.592c-0.926-0.011-1.883-0.136-2.856-0.385
				l-44.335-11.345c-6.074-1.555-10.337-7.485-9.543-13.218c0.79-5.697,6.284-9.072,12.291-7.574l43.854,10.955
				c6.18,1.545,10.731,7.521,10.143,13.378C4418.647,2268.377,4414.605,2271.652,4409.596,2271.592z M4287.993,2240.487
				c-0.878-0.007-1.78-0.122-2.688-0.354l-41.399-10.594c-5.676-1.452-9.343-7.07-8.214-12.521
				c1.124-5.415,6.571-8.645,12.188-7.246l40.981,10.239c5.773,1.442,9.702,7.101,8.753,12.664
				C4296.808,2237.398,4292.75,2240.523,4287.993,2240.487z"/>
		</g>
	</g>
</g>
<g id="border">
	<polygon style="fill:#C9AD87;" points="4497.779,2197.477 4497.779,2229.105 6400,2477.887 6400,2396.878 	"/>
	<polygon style="fill:#EFCDA0;" points="4497.779,2197.477 6400,2396.878 6400,2360.437 	"/>
	<polygon style="fill:#BCBC4B;" points="4497.779,2197.477 6400,2197.477 6400,2360.437 	"/>
	<polygon style="fill:#F9EAC7;" points="2884.946,2197.478 2496.35,2197.478 2545.664,2391.443 0,2391.443 0,2427.97 
		3100.296,2427.97 	"/>
	<g id="Border_4_">
		<polygon style="fill:#C9AD87;" points="6190.668,3600 5342.033,3159.457 0.001,3159.457 0.001,3271.065 5331,3271.065 
			5942.094,3600 		"/>
		<polygon style="fill:#EFCDA0;" points="6400,3115.975 0,3115.975 0,3171.778 5331,3171.778 6208.666,3600 6400,3600 		"/>
		<polygon style="fill:#FFE8D2;" points="6208.666,3600 5331,3162.555 0.001,3162.555 0.001,3171.778 5331,3171.778 6190.668,3600 
					"/>
		<rect y="3115.975" style="fill:#FFE8D2;" width="6400" height="9.224"/>
	</g>
	<g id="Border_1_">
		<rect y="2697.041" style="fill:#C9AD87;" width="5135.23" height="65.61"/>
		<polygon style="fill:#EFCDA0;" points="3599.504,2197.478 4424.206,2641.238 0.001,2641.238 0.001,2697.041 5132.913,2697.041 		
			"/>
		<path style="fill:#FFE8D2;" d="M5133.674,2697.041l-1534.477-499.563l1486.512,490.34H0v9.224
			C0,2697.041,5134.199,2697.566,5133.674,2697.041z"/>
		<polygon style="fill:#FFE8D2;" points="3598.888,2197.478 4423.098,2641.238 0,2641.238 0,2650.461 4459.731,2650.461 		"/>
	</g>
	<polygon style="fill:#FFE8D2;" points="0,2477.088 3236.542,2477.088 2887.828,2197.478 2884.946,2197.478 3207.284,2465.439 
		0,2465.439 	"/>
	<polygon style="fill:#EFCDA0;" points="2884.946,2197.478 2880.634,2197.478 3119.769,2437.963 0,2437.963 0,2465.36 
		3143.271,2465.36 3206.029,2465.36 	"/>
	<polygon style="fill:#FFE8D2;" points="2880.634,2197.478 2878.351,2197.478 3100.296,2427.97 0,2427.97 0,2437.963 
		3119.769,2437.963 	"/>
</g>
<g id="Bushes">
	<path style="fill:#75AD6F;" d="M6392.885,2090.681c2.806-8.554,4.365-17.891,4.365-27.681c0-23.123-8.621-43.764-22.119-57.333
		c1.576-6.537,2.996-13.199,4.211-19.994c18.486-103.293-13.244-195.389-70.871-205.702c-20.925-3.745-42.385,3.817-62.121,19.902
		c-13.138-88.176-53.896-152.378-108.666-158.535c-34.22-3.848-68.137,15.625-96.674,51.026
		c-28.352-110.979-87.627-187.359-156.171-187.359c-74.514,0-138.075,90.262-162.858,217.118
		c-27.383-28.614-58.048-42.973-87.207-37.163c-4.322,0.861-8.501,2.149-12.536,3.83c-9.372-31.497-36.296-51.939-62.628-46.396
		c-28.104,5.916-44.891,39.189-37.494,74.318c5.336,25.343,21.801,44.723,41.111,51.334c-4.641,15.423-7.979,32.471-9.881,50.732
		c-10.407-3.773-20.865-4.772-31.022-2.555c-51.306,11.203-75.5,99.951-54.04,198.225c6.202,28.408,15.546,54.495,26.929,76.969
		l-392.837,0.322c30.926-19.137,55.82-57.159,68.963-105.045c10.023,15.975,24.51,26.012,40.621,26.012
		c30.254,0,54.778-35.385,54.778-79.034s-24.524-79.033-54.778-79.033c-12.314,0-23.678,5.862-32.826,15.759
		c-11.351-90.096-61.824-158.02-122.379-158.02c-24.462,0-47.275,11.093-66.534,30.246
		c-14.161-166.07-83.896-292.186-167.794-292.186c-82.094,0-150.627,120.754-166.803,281.535
		c-18.422-26.63-40.607-42.176-64.482-42.176c-34.67,0-65.771,32.778-86.967,84.683c-8.836-10.449-21.144-16.939-34.763-16.939
		c-26.892,0-48.692,25.274-48.692,56.452c0,31.179,21.801,56.453,48.692,56.453c3.652,0,7.204-0.481,10.627-1.364
		c-2.953,21.939-4.54,45.124-4.54,69.107c0,57.965,9.244,111.291,24.738,153.551h-714.583c10-18.514,18.023-39.524,23.6-62.305
		c4.797,2.344,9.819,3.594,14.993,3.594c33.614,0,60.865-52.57,60.865-117.421s-27.251-117.422-60.865-117.422
		c-13.506,0-25.982,8.493-36.079,22.854c-26.694-52.322-68.756-86.08-116.082-86.08c-31.12,0-59.961,14.603-83.658,39.472
		c-14.392-134.825-61.411-233.669-117.194-233.669c-61.508,0-112.358,120.161-120.57,276.226
		c-19.719-17.625-43.071-27.834-68.11-27.834c-70.591,0-127.816,81.063-127.816,181.059c0,46.771,12.521,89.398,33.071,121.527
		H3024.05c20.88-35.026,33.302-78.867,33.302-126.453c0-114.735-72.16-207.746-161.174-207.746c-47.03,0-89.35,25.97-118.814,67.384
		c-18.982-74.761-58.178-126.095-103.458-126.095c-50.822,0-93.985,64.658-109.499,154.537c-3.012-0.646-6.077-0.986-9.188-0.986
		c-42.018,0-76.081,60.66-76.081,135.486c0,47.666,13.824,89.576,34.719,113.727l-17.509,95.886H6400v-106.805L6392.885,2090.681z"
		/>
	<path style="fill:#95AD3D;" d="M6400,2151.666c0-20.618-13.984-37.333-30-37.333s-29,16.715-29,37.333
		c0,8.914,2.43,17.096,6.479,23.515h-25.263c0.07-0.5,0.117-1.004,0.117-1.515c0-10.677-15.521-19.333-34.668-19.333
		c-0.986,0-1.961,0.028-2.927,0.074c4.972-6.503,9.44-13.933,13.128-22.135c16.758-37.274,11.15-76.121-12.523-86.765
		c-11.513-5.177-25.176-2.713-38.107,5.454c-3.451-44.055-26.41-79.381-60.361-86.489c-16.164-3.385-32.613,0.09-47.66,8.862
		C6123.064,1905.918,6074.904,1857,6018,1857c-59.574,0-109.56,53.62-123.27,125.949c-12.91,4.77-24.629,12.232-34.549,21.761
		c-17.833-24.846-40.084-38.37-60.289-33.47c-30.603,7.423-46.019,54.557-37.574,109.195c-4.217-1.578-8.686-2.436-13.318-2.436
		c-25.405,0-46,25.52-46,57c0,10.576,2.334,20.473,6.383,28.961c-6.443-6.53-18.977-10.961-33.383-10.961
		c-10.538,0-20.072,2.371-26.955,6.2c6.068-14.558,9.451-30.622,9.451-47.521c0-65.707-50.877-118.972-113.637-118.972
		c-17.094,0-33.299,3.958-47.842,11.034c-15.146-86.99-82.451-152.57-163.197-152.57c-75.513,0-139.266,57.355-159.604,135.938
		c-22.96-20.983-52.138-33.55-83.904-33.55c-21.102,0-41.061,5.549-58.814,15.42c-18.271-83.747-75.869-144.911-144.108-144.911
		c-80.257,0-145.806,84.601-149.951,191.051c-18.159,6.198-33.758,18.678-44.647,35.095c-23.03-22.361-56.41-36.427-93.551-36.427
		c-22.166,0-42.988,5.016-61.074,13.807c-4.094-106.652-71.486-191.479-154.023-191.479c-46.092,0-87.453,26.462-115.713,68.396
		c-22.213-89.309-78.315-152.715-144.028-152.715c-72.976,0-134.106,78.191-150.121,183.223
		c-24.421-34.933-59.043-56.743-97.444-56.743c-73.967,0-133.929,80.896-133.929,180.685c0,44.265,11.806,84.804,31.391,116.222
		h-75.956c5.129-12.211,8.039-26.143,8.039-40.937c0-47.062-29.41-85.422-66.234-87.256c0.85-7.938,1.299-15.998,1.299-24.166
		c0-121.41-96.303-219.834-215.098-219.834s-215.098,98.424-215.098,219.834c0,10.628,0.754,21.075,2.18,31.3
		c-21.676-55.298-76.254-94.54-140.167-94.54c-42.418,0-80.723,17.289-108.031,45.081
		c-11.985-92.647-65.582-162.526-129.896-162.526c-57.384,0-106.235,55.631-124.612,133.428
		c-31.457-34.57-73.893-54.691-117.392-51.064c-77.959,6.502-129.792,86.803-115.773,179.356c3.932,25.962,12.63,50.13,24.83,71.324
		h-6.039v22.303H6400v-22.303C6400,2175.181,6400,2160.58,6400,2151.666z M2935.877,2175.181c0.719-1.278,1.428-2.571,2.126-3.876
		c0.642,1.304,1.308,2.594,1.988,3.876H2935.877z M3206.534,2175.181c10.786-20.36,16.891-43.498,16.891-68.039
		c0-4.372-0.204-8.697-0.584-12.973c10.274,30.617,26.976,58.181,48.461,81.012H3206.534z M5713.936,2175.181
		c0.041-0.391,0.064-0.784,0.064-1.181c0-0.811-0.092-1.609-0.254-2.396c0.838,1.236,1.713,2.433,2.631,3.576H5713.936z"/>
	<g>
		<path style="fill:#6C9E16;" d="M4765.238,1990.825c-12.029-4.312-27.533,7.503-36.764,27.024
			c-7.049-22.815-19.713-38.336-35.973-40.728c-8.52-1.253-17.13,1.233-25.314,6.729c-8.373-75.881-42.468-132.69-83.262-132.69
			c-45.765,0-83.1,71.492-85.144,161.204c-19.478-25.275-44.372-38.628-66.98-32.641c-36.567,9.686-53.3,66.283-37.374,126.416
			c15.926,60.132,44.504,78.474,95.047,91.343h188.905c0,0,47.057-57.312,54.108-105.248c0.773-5.249,1.33-10.438,1.693-15.541
			c0.082,0.031,0.16,0.07,0.242,0.1c13.453,4.822,31.256-10.514,39.766-34.253
			C4782.698,2018.801,4778.691,1995.647,4765.238,1990.825z"/>
		<path style="fill:#95AD3D;" d="M4460.773,2049.803c5.021,26.995-3.414,51.204-18.84,54.072c-15.426,2.869-32-16.688-37.02-43.684
			c-5.021-26.994,3.414-51.203,18.84-54.072C4439.18,2003.251,4455.754,2022.809,4460.773,2049.803z"/>
		<path style="fill:#95AD3D;" d="M4629.678,1915.996c0,20.172-13.627,36.525-30.438,36.525s-30.439-16.354-30.439-36.525
			c0-20.174,13.629-36.526,30.439-36.526S4629.678,1895.822,4629.678,1915.996z"/>
		<path style="fill:#95AD3D;" d="M4718.965,2028.997c0,13.799-6.322,24.985-14.119,24.985c-7.799,0-14.12-11.187-14.12-24.985
			c0-13.8,6.321-24.985,14.12-24.985C4712.643,2004.012,4718.965,2015.197,4718.965,2028.997z"/>
	</g>
	<g>
		<path style="fill:#6C9E16;" d="M5477.874,2098.81c-7.853-2.39-16.662,1.173-24.402,8.79
			c-1.489-44.502-25.872-79.895-55.731-79.895c-10.029,0-19.432,4.013-27.564,11.001c-10.424-32.897-32.779-55.644-58.678-55.644
			c-11.727,0-22.727,4.664-32.223,12.82c-11.174-61.416-45.663-106.165-86.486-106.165c-49.808,0-90.195,66.605-90.299,148.832
			c-11.654-8.319-24.146-11.511-35.387-7.782c-12.369,4.104-20.937,15.84-24.911,31.614c-4.581-0.331-9.11,0.206-13.456,1.745
			c-24.3,8.602-33.691,44.692-20.977,80.613c9.57,27.035,28.934,46.262,48.287,50.455l0.445,2.288h401.787v-5.14
			c12.843-2.563,26.232-17.792,32.588-38.67C5498.701,2127.943,5492.883,2103.38,5477.874,2098.81z"/>
		<path style="fill:#95AD3D;" d="M5202.934,1980.525c0,22.414-12.037,40.585-26.887,40.585s-26.887-18.171-26.887-40.585
			s12.037-40.584,26.887-40.584S5202.934,1958.111,5202.934,1980.525z"/>
		<path style="fill:#95AD3D;" d="M5060.809,2121.173c6.344,12.804,3.346,27.217-6.697,32.191
			c-10.043,4.976-23.326-1.371-29.668-14.175c-6.344-12.804-3.346-27.217,6.696-32.191
			C5041.182,2102.022,5054.465,2108.369,5060.809,2121.173z"/>
		<path style="fill:#95AD3D;" d="M5227.285,1936.391c0,5.883-3.406,10.652-7.609,10.652s-7.609-4.77-7.609-10.652
			c0-5.885,3.406-10.654,7.609-10.654S5227.285,1930.506,5227.285,1936.391z"/>
		<path style="fill:#95AD3D;" d="M5422.092,2087.061c0,19.612-5.68,35.511-12.684,35.511s-12.683-15.898-12.683-35.511
			c0-19.613,5.679-35.512,12.683-35.512S5422.092,2067.447,5422.092,2087.061z"/>
		<path style="fill:#95AD3D;" d="M5484.997,2131.703c0,5.043-2.952,9.131-6.595,9.131s-6.596-4.088-6.596-9.131
			s2.953-9.132,6.596-9.132S5484.997,2126.66,5484.997,2131.703z"/>
	</g>
	<g>
		<path style="fill:#6C9E16;" d="M6236.359,2044.62c-4.769-1.527-9.668-2.116-14.582-1.887
			c-0.326-29.364-9.445-51.442-25.895-56.419c-14.054-4.253-30.573,4.854-45.41,22.717c-10.369-55.655-41.887-96.132-79.159-96.132
			c-38.429,0-70.737,43.023-80.063,101.349c-1.885,0.155-3.773,0.383-5.662,0.742c-26.316,5.002-45.403,28.85-51.213,59.478
			c-7.049-1.396-13.98-0.808-20.242,2.116c-13.219,6.174-20.396,21.287-20.609,39.4c-5.963-2.021-11.859-1.966-16.914,0.621
			c-13.566,6.939-15.924,29.455-5.266,50.289s30.296,32.098,43.862,25.157v5.432h291.956v-6.637
			c24.182-2.517,48.281-24.895,58.605-57.133C6278.551,2093.805,6265.383,2053.916,6236.359,2044.62z M6116.114,2163.32h-0.067
			c0.016-0.016,0.031-0.031,0.047-0.047C6116.101,2163.289,6116.107,2163.305,6116.114,2163.32z"/>
		<path style="fill:#95AD3D;" d="M6124.946,1975.932c7.515,22.819,4.675,44.259-6.341,47.886
			c-11.017,3.628-26.039-11.931-33.553-34.749c-7.514-22.819-4.674-44.259,6.343-47.886
			C6102.411,1937.555,6117.433,1953.113,6124.946,1975.932z"/>
		<ellipse style="fill:#95AD3D;" cx="6199.5" cy="2025" rx="5.5" ry="12"/>
		<path style="fill:#95AD3D;" d="M6252.848,2097.098c2.409,18.9-4.076,35.299-14.484,36.625
			c-10.41,1.327-20.801-12.919-23.211-31.82c-2.409-18.9,4.076-35.299,14.484-36.625
			C6240.047,2063.95,6250.438,2078.196,6252.848,2097.098z"/>
		<path style="fill:#95AD3D;" d="M5953.592,2122.689c3.934,20.615-2.992,39.256-15.47,41.637s-25.781-12.4-29.715-33.016
			c-3.933-20.615,2.993-39.256,15.471-41.637S5949.659,2102.074,5953.592,2122.689z"/>
		<ellipse style="fill:#95AD3D;" cx="5886" cy="2139.5" rx="6" ry="7.5"/>
	</g>
</g>
<g id="Building">
	<polygon style="fill:#FF966C;" points="0,2391.443 2241.767,2391.443 2290.459,0 0,0 	"/>
	<polygon style="fill:#D87D5D;" points="0.001,1198.259 0.001,1299.721 1989.656,1299.721 1989.656,2208.813 2111.41,2208.813 
		2111.41,1198.259 	"/>
	<polygon style="fill:#D87D5D;" points="2284.372,2391.443 2241.767,2391.443 2290.459,0 2430.447,0 	"/>
	<polygon style="fill:#C1AA72;" points="703.127,2237.223 1945.013,2245.34 1977.632,2193.658 785.75,2195.994 	"/>
	<polygon style="fill:#C1AA72;" points="728.154,1019.688 1961.924,1019.688 2003.992,978.459 812.11,976.123 	"/>
	<g id="Window_x5F_02">
		<path style="fill:#EEF3FF;" d="M744.348,67.083l67.763,909.04l1191.881,2.336l42.752-865.786L744.348,67.083z M1945.626,937.547
			L859.45,942.334l-58.514-818.207l1194.368,23.825L1945.626,937.547z"/>
		<polygon style="fill:#C5FFF7;" points="859.45,942.334 1945.626,937.547 1995.304,147.953 800.936,124.127 		"/>
		<path style="fill:#A1DBFF;" d="M859.45,942.334l111.532-0.492l-73.049-587.741c-2.215-65.663,104.165-132.419,169.84-130.632
			l921.202,25.07l6.329-100.586L800.936,124.127L859.45,942.334z"/>
		<polygon style="fill:#E9FFFC;" points="1076.043,941.379 1288.693,940.442 1634.985,140.765 1424.559,136.567 		"/>
		<polygon style="fill:#CAEDFF;" points="1383.209,232.054 1592.981,237.763 1634.985,140.765 1424.559,136.567 		"/>
		<polygon style="fill:#E9FFFC;" points="1483.294,939.584 1827.551,144.606 1774.944,143.557 1430.131,939.818 		"/>
		<polygon style="fill:#CAEDFF;" points="1732.505,241.56 1784.948,242.987 1827.551,144.606 1774.944,143.557 		"/>
		<path style="fill:#696E7F;" d="M776.227,106.888l62.173,850.47l1127.002-5.468l52.754-819.61L776.227,106.888z M1945.626,937.547
			L859.45,942.334l-58.514-818.207l399.998,7.979l13.843,808.661l9.202-0.04l-13.311-808.426l394.159,7.863l-7.964,798.92
			l8.992-0.04l8.47-798.691l380.979,7.6L1945.626,937.547z"/>
	</g>
	<g id="Window_x5F_01">
		<path style="fill:#EEF3FF;" d="M742.998,1330.209l42.753,865.785l1191.881-2.336l67.763-909.04L742.998,1330.209z
			 M794.438,1365.488l1194.367-23.825l-58.513,818.207l-1086.176-4.787L794.438,1365.488z"/>
		<polygon style="fill:#C5FFF7;" points="1930.292,2159.869 844.116,2155.082 794.438,1365.488 1988.806,1341.663 		"/>
		<path style="fill:#A1DBFF;" d="M902.746,1641.096l54.764,514.486l-113.394-0.5l-49.678-789.594l1194.367-23.825l-10.554,147.579
			l-857.895-0.248C1009.09,1488.961,895.652,1530.055,902.746,1641.096z"/>
		<polygon style="fill:#E9FFFC;" points="1092.937,2156.179 1304.777,2157.112 1655.015,1348.321 1440.922,1352.592 		"/>
		<polygon style="fill:#CAEDFF;" points="1655.015,1348.321 1440.922,1352.592 1381.822,1489.069 1594.039,1489.13 		"/>
		<polygon style="fill:#E9FFFC;" points="1445.676,2157.733 1498.636,2157.967 1850.937,1344.413 1797.413,1345.48 		"/>
		<polygon style="fill:#CAEDFF;" points="1735.189,1489.171 1788.244,1489.187 1850.937,1344.413 1797.413,1345.48 		"/>
		<path style="fill:#696E7F;" d="M771.587,1349.816l52.754,819.61l1127.002,5.469l62.173-850.471L771.587,1349.816z
			 M794.438,1365.488l380.979-7.6l8.47,798.691l8.992,0.04l-7.963-798.92l394.159-7.863l-13.311,808.426l9.202,0.041l13.843-808.661
			l399.997-7.979l-58.513,818.207l-1086.176-4.787L794.438,1365.488z"/>
	</g>
	<g>
		<polygon style="fill:#F9BD53;" points="119.27,2234.006 116.225,2294.889 311.05,2288.801 323.227,2227.918 		"/>
		<polygon style="fill:#F9BD53;" points="1102.527,2269.518 1090.351,2318.224 956.409,2324.313 959.453,2379.106 819.422,2376.063 
			813.334,2321.268 685.48,2321.268 679.392,2275.605 		"/>
		<polygon style="fill:#F9BD53;" points="536.317,2127.461 530.229,2185.299 743.318,2182.256 749.407,2127.461 		"/>
		<polygon style="fill:#F9BD53;" points="341.492,2097.02 542.405,2093.975 536.317,2036.137 338.448,2042.225 		"/>
		<polygon style="fill:#F9BD53;" points="502.832,1810.87 679.392,1810.87 682.435,1871.753 502.832,1871.753 		"/>
		<polygon style="fill:#FFD385;" points="279.617,1928.565 456.177,1928.565 459.221,1989.447 279.617,1989.447 		"/>
		<polygon style="fill:#FFD385;" points="1119.716,2318.176 1296.276,2318.176 1299.32,2379.059 1119.716,2379.059 		"/>
		<polygon style="fill:#F9BD53;" points="673.303,1670.839 673.303,1719.546 734.186,1722.59 731.142,1664.751 		"/>
		<polygon style="fill:#FFD385;" points="624.598,2326.278 615.466,2250.175 420.641,2259.308 423.207,2315.761 341.493,2317.146 
			335.405,2365.853 536.318,2362.809 524.902,2326.278 		"/>
		<polygon style="fill:#F9BD53;" points="46.21,1749.987 271.477,1746.943 271.477,1804.781 40.122,1813.914 		"/>
		<polygon style="fill:#F9BD53;" points="198.417,1476.014 195.373,1518.632 414.551,1518.632 402.375,1463.838 		"/>
		<polygon style="fill:#F9BD53;" points="484.566,1326.852 478.478,1375.558 688.524,1375.558 670.259,1320.763 		"/>
		<polygon style="fill:#D39D48;" points="569.803,1272.057 585.023,1220.306 378.022,1214.218 396.286,1259.88 		"/>
		<polygon style="fill:#E2B979;" points="1913.149,1243.647 1928.37,1191.897 1721.369,1185.809 1739.634,1231.471 		"/>
		<polygon style="fill:#FFD385;" points="280.609,1299.454 298.874,1342.072 164.932,1351.204 152.755,1393.822 0.001,1390.778 
			0.001,1293.366 		"/>
		<polygon style="fill:#F9BD53;" points="0.001,1961.248 183.645,1961.248 199.879,2030.242 0.001,2026.184 		"/>
		<polygon style="fill:#F9BD53;" points="2204.754,2383.327 1936.896,2387.386 1932.838,2338.684 1738.032,2334.625 
			1738.032,2257.516 2087.059,2257.516 2083.001,2310.275 2229.104,2310.275 		"/>
		<polygon style="fill:#F9BD53;" points="1372.772,2306.217 1384.947,2358.977 1677.155,2358.977 1693.39,2289.982 		"/>
		<polygon style="fill:#D39D48;" points="2046.475,1965.307 2062.708,2022.125 2200.695,2018.066 2225.046,1940.956 		"/>
		<polygon style="fill:#D39D48;" points="2054.591,1571.637 2042.416,1656.864 2151.994,1648.748 2151.994,1567.578 		"/>
		<polygon style="fill:#D39D48;" points="966.927,1157.675 938.518,1238.844 1113.031,1238.844 1113.031,1279.428 1271.31,1275.37 
			1267.252,1218.552 1397.123,1218.552 1401.181,1149.558 		"/>
		<polygon style="fill:#FFD385;" points="248.581,1579.754 220.172,1660.923 394.685,1660.923 394.685,1701.507 552.965,1697.449 
			548.906,1640.63 678.777,1640.63 682.835,1571.637 		"/>
	</g>
	<g>
		<polygon style="fill:#F9BD53;" points="119.27,158.455 116.225,97.572 311.05,103.66 323.227,164.543 		"/>
		<polygon style="fill:#F9BD53;" points="2153.45,90.302 2144.899,56.103 2050.852,51.828 2052.989,13.354 1954.666,15.491 
			1950.391,53.965 1860.617,53.965 1856.342,86.027 		"/>
		<polygon style="fill:#F9BD53;" points="513.996,265 507.907,207.161 720.997,210.205 727.085,265 		"/>
		<polygon style="fill:#F9BD53;" points="341.492,295.441 542.405,298.485 536.317,356.324 338.448,350.235 		"/>
		<polygon style="fill:#F9BD53;" points="502.832,581.59 679.392,581.59 682.435,520.708 502.832,520.708 		"/>
		<polygon style="fill:#FFD385;" points="279.617,463.895 456.177,463.895 459.221,403.012 279.617,403.012 		"/>
		<polygon style="fill:#FFD385;" points="1521.502,74.284 1698.063,74.284 1701.107,13.401 1521.502,13.401 		"/>
		<polygon style="fill:#F9BD53;" points="673.303,721.621 673.303,672.915 734.186,669.871 731.142,727.709 		"/>
		<polygon style="fill:#FFD385;" points="624.598,66.182 615.466,142.285 420.641,133.153 423.207,76.699 341.493,75.314 
			335.405,26.608 536.318,29.652 524.902,66.182 		"/>
		<polygon style="fill:#F9BD53;" points="46.21,642.473 271.477,645.517 271.477,587.679 40.122,578.546 		"/>
		<polygon style="fill:#F9BD53;" points="198.417,916.446 195.373,873.828 414.551,873.828 402.375,928.623 		"/>
		<polygon style="fill:#F9BD53;" points="0.001,431.212 183.645,431.212 199.879,362.219 0.001,366.277 		"/>
		<polygon style="fill:#F9BD53;" points="2046.475,427.154 2062.708,370.335 2200.695,374.394 2225.046,451.504 		"/>
		<polygon style="fill:#F9BD53;" points="2054.591,820.823 2042.416,735.596 2151.994,743.713 2151.994,824.882 		"/>
		<polygon style="fill:#FFD385;" points="248.581,812.706 220.172,731.538 394.685,731.538 394.685,690.953 552.965,695.011 
			548.906,751.83 678.777,751.83 682.835,820.823 		"/>
	</g>
	<g>
		<polygon style="fill:#FFD385;" points="0.001,1023.746 2496.963,1023.746 2496.963,1113.032 2285.923,2208.813 2111.41,2208.813 
			2111.41,1198.259 0.001,1198.259 		"/>
		<polygon style="fill:#FFE8D2;" points="0.001,1015.629 0.001,1023.746 2496.963,1023.746 2496.963,1113.032 2285.923,2208.813 
			2297.71,2208.813 2503.159,1109.624 2503.727,1015.629 		"/>
		<path style="fill:#FFE8D2;" d="M0.001,1198.259c0,8.395,0,10.146,0,10.146h2102.717l0.575,1000.408h8.117V1208.405v-10.146H0.001z
			"/>
	</g>
	<polygon style="fill:#5A5E6B;" points="2430.447,0 2399.11,513.036 2826.067,0 	"/>
</g>
<g id="Bush">
	<path style="fill:#6EA01F;" d="M2615.791,2153.619c-14.978-6.416-34.875,3.655-52.672,24.146
		c1.039-8.607,1.747-17.036,2.134-25.205c0.561,0.035,1.125,0.056,1.692,0.056c17.408,0,31.521-17.083,31.521-38.156
		s-14.112-38.155-31.521-38.155c-3.171,0-6.231,0.572-9.118,1.627c-6.05-19.035-15.416-31.252-27.361-33.125
		c-14.285-2.239-29.585,10.729-42.856,33.564c-6.825-72.962-38.524-128.147-76.606-128.147c-8.602,0-16.876,2.822-24.614,8.022
		c-5.78-4.018-12.717-6.364-20.178-6.364c-20.157,0-36.497,17.083-36.497,38.156c0,13.134,6.349,24.717,16.012,31.581
		c-4.864,15.017-8.495,31.811-10.6,49.8c-23.755-26.481-51.755-40.28-78.937-35.385c-36.083,6.499-62.03,44.366-71.629,96.313
		c-4.691-1.554-9.391-1.893-13.929-0.787c-22.254,5.425-32.204,43.016-22.224,83.963c8.686,35.637,29.604,62.059,49.553,64.74
		c25.654,72.551,85.256,111.697,85.256,111.697h262.161l2.991-64.775c23.582,10.101,52.324-20.35,72.887-68.354
		C2641.82,2210.825,2639.373,2163.721,2615.791,2153.619z"/>
	<path style="fill:#AAD63E;" d="M2215.833,2189.979c7.378,25.281,1.586,49.213-12.938,53.451
		c-14.523,4.239-32.278-12.82-39.657-38.102c-7.378-25.282-1.586-49.214,12.938-53.452
		C2190.699,2147.637,2208.454,2164.696,2215.833,2189.979z"/>
	<path style="fill:#AAD63E;" d="M2463.723,2030.195c6.82,31.203-2.296,59.699-20.361,63.648
		c-18.065,3.947-38.238-18.146-45.059-49.351c-6.82-31.204,2.296-59.7,20.361-63.648S2456.903,1998.991,2463.723,2030.195z"/>
	<path style="fill:#AAD63E;" d="M2603.612,2249.851c-13.276,29.05-35.194,47.502-48.955,41.213
		c-13.761-6.288-14.153-34.937-0.876-63.987c13.276-29.05,35.194-47.502,48.955-41.213
		C2616.497,2192.152,2616.889,2220.801,2603.612,2249.851z"/>
	<ellipse style="fill:#AAD63E;" cx="2361.004" cy="1991.687" rx="15.219" ry="20.292"/>
</g>
<g id="Tree_x5F_03">
	<path style="fill:#7A6059;" d="M498.758,1693.39c0,0,10.015,38.727,29.931,63.92c15.636,19.779,41.385,27.231,46.164,27.902
		c28.917,4.059-55.804-52.76-38.555-129.363c0,0,5.073,87.257,52.76,114.651c0,0,37.879,60.877,36.526,25.365
		c0,0,68.896,83.971,71.023,59.862c3.043-34.497-31.383-49.232-36.526-170.962c-1.522-36.019-33.865-33.47-49.716-50.223
		c0,0,45.13,11.28,53.774,39.57c11.161,36.526,7.102,110.085,25.365,108.056c23.959-2.662,3.551-67.979,67.979-120.231
		c0,0-33.482,36.019-37.54,55.804c-8.816,42.975-24.96,86.112-14.205,94.866c10.566,8.601,6.703-25.982,51.997-39.559
		c-6.435,2.146-28.907,12.093-41.851,49.197c0,0,6.005,50.89,15.219,58.848c11.161,9.639,72.038-62.906,109.578-203.938
		c0,0-6.549,43.458-31.684,105.428c62.337,20.31,117.438-65.195,121.708-72.009c-58.65,95.776-114.025,84.579-125.428,80.985
		c-4.302,10.172-9.111,20.798-14.44,31.753c70.058,1.925,121.313-15.436,156.896-35.693c-5.326-11.846-19.1-48.647,0.498-76.643
		c0,0-21.517,43.695,9.085,70.89c39.509-24.979,56.527-51.951,56.527-51.951c-63.597,104.347-205.532,107.245-229.796,106.957
		c-11.802,22.916-25.915,47.07-42.796,71.615c-32.737,47.6,127.841,93.344,79.14,271.916
		c-48.701,178.572-97.402,117.695-44.643,369.319H714.87c0,0-17.249-163.353,21.307-236.405
		c38.555-73.052,80.154-182.63,53.774-258.726c-20.575-59.351-85.228-120.739-83.198-140.017s-83.875-116.343-135.958-118.71
		C549.486,1794.897,494.699,1734.989,498.758,1693.39z"/>
	<path style="fill:#6EA01F;" d="M475.079,997.754c18.065-4.291,37.058,3.733,52.365,19.857
		c2.081-70.17,27.45-124.344,62.818-127.258c16.12-1.329,31.935,8.188,45.656,25.46c12.76-54.464,36.071-90.931,62.718-90.931
		c33.378,0,61.525,57.206,70.253,135.343c17.143-20.483,37.486-31.21,56.679-27.174c24.754,5.205,41.367,33.661,45.625,71.773
		c16.031-12.936,34.127-18.407,50.756-13.43c34.357,10.282,49.445,61.266,33.701,113.875c-15.745,52.609-56.36,86.922-90.717,76.64
		c-15.204-4.55-26.631-17.075-33.286-34.18c-17.215,20.751-37.701,31.651-57.022,27.588c-11.541-2.427-21.31-9.91-28.885-21.065
		c-12.719,27.45-29.154,44.006-47.105,44.006c-14.455,0-27.927-10.731-39.268-29.242c-10.956,21.754-25.837,35.4-43.104,36.824
		c-25.49,2.101-50.214-22.919-67.107-62.84c-7.3,14.666-18.595,25.114-32.809,28.49c-32.711,7.771-68.467-24.823-79.864-72.799
		C425.089,1050.716,442.368,1005.524,475.079,997.754z"/>
	<path style="fill:#7EB741;" d="M313.161,1321.954c15.308-7.514,36.149-0.031,57.353,18.087c-0.4-5.241-0.612-10.567-0.612-15.97
		c0-57.956,23.647-107.559,57.156-127.998c-14.717-10.963-26.82-30.608-31.757-54.521c-8.384-40.609,7.063-78.123,34.501-83.788
		c16.266-3.358,33.094,5.231,45.849,21.242c5.944-22.748,16.246-37.8,30.629-41.728c35.018-9.563,82.707,49.908,114.499,138.053
		c22.991-61.127,69.215-102.884,122.5-102.884c49.956,0,93.711,36.699,117.929,91.657c15.736-28.52,38.646-45.342,59.579-40.556
		c24.845,5.68,38.975,39.985,35.8,81.347c12.86-9.558,26.555-13.748,39.661-10.921c17.571,3.789,30.912,19.499,38.524,42.117
		c9.279-6.981,19.738-10.157,30.022-8.172c25.31,4.884,39.974,39.173,32.753,76.587s-33.591,63.784-58.9,58.9
		c-3.692-0.712-7.15-2.067-10.355-3.95c-18.7,50.39-53.115,83.143-84.21,76.438c-35.862-7.733-54.119-65.102-41.962-129.58
		c-7.907,3.74-16.016,4.974-23.849,3.183c-0.356-0.082-0.709-0.174-1.061-0.268c-14.9,83.105-69.207,144.712-133.932,144.712
		c-37.952,0-72.322-21.184-97.269-55.459c-6.009,21.779-16.149,36.169-30.165,39.997c-21.742,5.938-48.37-14.746-73.045-52.373
		c-15.031,45.049-45.917,75.952-81.583,75.952c-5.475,0-10.836-0.73-16.046-2.125c16.783,52.598,13.671,97.942-10.411,109.762
		c-30.182,14.814-81.87-28.635-115.448-97.047C285.733,1404.236,282.979,1336.769,313.161,1321.954z"/>
	<path style="fill:#6EA01F;" d="M350.338,1599.525c5.609-2.94,11.883-3.799,18.237-2.861c-4.238-7.167-8.145-14.795-11.623-22.843
		c-27.567-63.782-18.224-129.184,20.868-146.079c18.18-7.858,39.592-3.835,60.071,9.126c1.545-55.593,20.294-97.548,52.376-106.294
		c35.702-9.732,78.045,24.357,108.752,81.724c13.942-83.869,57.393-145.043,108.846-145.043c34.574,0,65.533,27.627,86.358,71.193
		c37.574-88.966,92.759-145.241,140.326-134.725c51.504,11.387,78.097,97.547,68.98,205.727
		c29.217-23.196,58.387-32.262,81.187-21.874c37.353,17.021,46.538,81.184,26.919,156.217c11.15-1.487,21.363,0.253,29.804,5.69
		c20.932,13.484,25.688,46.271,15.412,83.908c5.98,10.503,9.523,23.546,9.523,37.68c0,34.742-21.405,62.906-47.809,62.906
		c-6.526,0-12.745-1.726-18.413-4.842c-33.255,32.934-71.028,46.875-94.782,31.574c-8.148-5.25-13.84-13.429-17.154-23.675
		c-24.861,16.24-49.018,21.582-68.517,12.697c-18.607-8.478-30.223-28.656-34.773-56.046
		c-21.157,17.265-42.893,24.996-63.235,20.499c-26.014-5.751-45.668-30.591-57.583-67.696
		c-16.581,16.932-35.779,26.613-56.243,26.613c-28.08,0-53.773-18.227-73.593-48.41c-7.921,32.873-24.009,55.969-46.869,62.201
		c-23.719,6.466-50.372-6.409-74.596-32.602c0.695,2.13,1.354,4.29,1.967,6.482c14.481,51.809-0.03,101.145-32.41,110.194
		c-32.38,9.051-70.369-25.611-84.849-77.42c-0.725-2.593-1.369-5.179-1.949-7.754c-0.004,0.002-0.008,0.004-0.012,0.006
		c-17.868,9.365-42.474-2.357-54.96-26.181C328.107,1635.793,332.47,1608.889,350.338,1599.525z"/>
	<g>
		<path style="fill:#AAD63E;" d="M1054.741,1633.012c-17.784,30.804-18.981,63.408-2.674,72.824
			c16.308,9.416,43.946-7.923,61.73-38.727c17.785-30.804,18.982-63.409,2.674-72.824
			C1100.164,1584.869,1072.526,1602.208,1054.741,1633.012z"/>
		<ellipse style="fill:#AAD63E;" cx="1059.838" cy="1560.476" rx="14.205" ry="15.219"/>
		
			<ellipse transform="matrix(0.9276 -0.3736 0.3736 0.9276 -520.8564 251.03)" style="fill:#AAD63E;" cx="387.15" cy="1469.161" rx="13.19" ry="13.19"/>
		<path style="fill:#AAD63E;" d="M349.609,1648.748c0,8.965,4.997,16.234,11.161,16.234c6.164,0,11.161-7.269,11.161-16.234
			c0-8.966-4.997-16.234-11.161-16.234C354.606,1632.514,349.609,1639.782,349.609,1648.748z"/>
		<path style="fill:#AAD63E;" d="M378.897,1563.301c8.588,33.085,27.422,56.824,42.066,53.023
			c14.644-3.801,19.553-33.704,10.965-66.789c-8.588-33.085-27.422-56.824-42.066-53.023
			C375.219,1500.313,370.309,1530.215,378.897,1563.301z"/>
		<path style="fill:#AAD63E;" d="M649.935,1352.48c0,21.293,10.448,38.555,23.336,38.555s23.336-17.262,23.336-38.555
			s-10.448-38.555-23.336-38.555S649.935,1331.187,649.935,1352.48z"/>
		<ellipse style="fill:#7EB741;" cx="905.617" cy="1062.301" rx="26.38" ry="36.526"/>
		<path style="fill:#7EB741;" d="M812.273,967.942c0,8.405,6.814,15.219,15.219,15.219s15.219-6.813,15.219-15.219
			c0-8.405-6.814-15.219-15.219-15.219S812.273,959.537,812.273,967.942z"/>
		<ellipse style="fill:#7EB741;" cx="691.534" cy="893.876" rx="23.336" ry="49.716"/>
		<path style="fill:#7EB741;" d="M555,977.103c5.228,24.095,17.901,41.798,28.306,39.54c10.404-2.258,14.601-23.621,9.372-47.716
			c-5.228-24.095-17.901-41.797-28.306-39.539C553.968,931.645,549.771,953.008,555,977.103z"/>
		<path style="fill:#6EA01F;" d="M505.305,1173.588c8.88,28.927,30.409,47.978,48.086,42.552
			c17.678-5.427,24.81-33.276,15.93-62.203c-8.88-28.927-30.409-47.978-48.086-42.551
			C503.557,1116.812,496.425,1144.661,505.305,1173.588z"/>
		<path style="fill:#6EA01F;" d="M321.502,1398.21c4.086,20.897,14.533,36.443,23.332,34.723
			c8.799-1.721,12.619-20.057,8.532-40.954c-4.087-20.897-14.533-36.443-23.332-34.723
			C321.235,1358.977,317.415,1377.313,321.502,1398.21z"/>
		<path style="fill:#6EA01F;" d="M1041.576,1276.385c0,9.526,7.268,17.248,16.233,17.248c8.966,0,16.234-7.722,16.234-17.248
			c0-9.526-7.268-17.249-16.234-17.249C1048.844,1259.136,1041.576,1266.858,1041.576,1276.385z"/>
		<path style="fill:#6EA01F;" d="M420.632,1114.046c0,7.285,5.451,13.19,12.176,13.19c6.724,0,12.175-5.905,12.175-13.19
			s-5.451-13.19-12.175-13.19C426.083,1100.856,420.632,1106.762,420.632,1114.046z"/>
	</g>
</g>
<g id="Tree_x5F_02_1_">
	<path style="fill:#7A6059;" d="M3540.535,1692.234c0,0-7.086,27.4-21.177,45.224c-11.063,13.994-29.28,19.267-32.662,19.741
		c-20.458,2.871,39.481-37.328,27.278-91.526c0,0-3.589,61.735-37.328,81.117c0,0-26.8,43.071-25.842,17.946
		c0,0-48.745,59.411-50.25,42.353c-2.154-24.407,22.203-34.832,25.843-120.958c1.076-25.483,23.959-23.68,35.174-35.533
		c0,0-31.93,7.98-38.046,27.996c-7.896,25.843-5.024,77.887-17.946,76.451c-16.951-1.884-2.513-48.096-48.096-85.065
		c0,0,23.688,25.483,26.561,39.481c6.237,30.405,17.659,60.926,10.05,67.119c-7.476,6.085-4.742-18.383-36.788-27.988
		c4.553,1.519,20.452,8.557,29.609,34.808c0,0-4.248,36.004-10.768,41.635c-7.896,6.819-50.968-44.507-77.528-144.288
		c0,0,4.635,30.747,22.418,74.591c-44.104,14.369-83.089-46.126-86.111-50.947c41.496,67.763,80.675,59.84,88.742,57.298
		c3.045,7.197,6.446,14.715,10.217,22.466c-49.566,1.361-85.83-10.921-111.005-25.254c3.768-8.381,13.513-34.418-0.353-54.226
		c0,0,15.224,30.914-6.428,50.155c-27.952-17.672-39.993-36.756-39.993-36.756c44.995,73.827,145.416,75.877,162.583,75.673
		c8.351,16.214,18.336,33.303,30.279,50.669c23.162,33.678-86.626,59.607-4.447,246.795c23.216,52.878-79.135,47.177,19.325,206.887
		h43.071c0,0-59.353-120.143-45.656-149.058c25.019-52.815-52.145-148.565-33.479-202.405
		c14.557-41.991,47.029-84.272,45.594-97.912c-1.436-13.639,59.343-82.313,96.192-83.988
		C3504.645,1764.052,3543.406,1721.666,3540.535,1692.234z"/>
	<path style="fill:#95AD3D;" d="M3557.288,1200.063c-12.782-3.036-26.219,2.642-37.049,14.049
		c-1.472-49.646-19.421-87.974-44.444-90.037c-11.405-0.94-22.594,5.793-32.303,18.014c-9.027-38.534-25.521-64.334-44.373-64.334
		c-23.615,0-43.53,40.474-49.705,95.756c-12.129-14.492-26.522-22.081-40.102-19.226c-17.514,3.683-29.268,23.816-32.28,50.781
		c-11.343-9.152-24.146-13.023-35.911-9.501c-24.308,7.274-34.982,43.346-23.844,80.568c11.14,37.222,39.876,61.499,64.184,54.224
		c10.757-3.219,18.842-12.081,23.551-24.183c12.179,14.682,26.673,22.394,40.343,19.519c8.165-1.717,15.077-7.012,20.437-14.904
		c8.999,19.421,20.627,31.135,33.328,31.135c10.227,0,19.759-7.593,27.782-20.689c7.751,15.392,18.28,25.047,30.497,26.054
		c18.034,1.486,35.526-16.216,47.479-44.46c5.164,10.376,13.156,17.769,23.213,20.158c23.143,5.497,48.441-17.563,56.504-51.507
		S3580.432,1205.561,3557.288,1200.063z"/>
	<path style="fill:#AAD63E;" d="M3671.848,1429.438c-10.831-5.316-25.576-0.022-40.578,12.796c0.282-3.708,0.433-7.476,0.433-11.299
		c0-41.004-16.731-76.099-40.438-90.56c10.413-7.756,18.976-21.655,22.469-38.574c5.932-28.732-4.996-55.273-24.41-59.281
		c-11.508-2.376-23.414,3.701-32.438,15.029c-4.206-16.094-11.494-26.744-21.671-29.523c-24.775-6.766-58.517,35.31-81.01,97.674
		c-16.266-43.249-48.97-72.792-86.67-72.792c-35.345,0-66.302,25.965-83.436,64.848c-11.134-20.178-27.343-32.08-42.152-28.694
		c-17.579,4.019-27.576,28.29-25.33,57.554c-9.099-6.763-18.788-9.727-28.06-7.727c-12.432,2.681-21.871,13.795-27.256,29.798
		c-6.565-4.939-13.965-7.186-21.242-5.782c-17.907,3.456-28.282,27.716-23.173,54.187c5.108,26.471,23.766,45.128,41.673,41.672
		c2.611-0.504,5.058-1.462,7.325-2.794c13.23,35.651,37.579,58.825,59.58,54.081c25.373-5.471,38.29-46.061,29.688-91.68
		c5.595,2.646,11.332,3.519,16.873,2.252c0.253-0.057,0.502-0.123,0.751-0.189c10.542,58.797,48.965,102.386,94.759,102.386
		c26.852,0,51.169-14.988,68.818-39.239c4.252,15.409,11.426,25.59,21.342,28.298c15.384,4.201,34.223-10.433,51.682-37.054
		c10.634,31.873,32.486,53.737,57.721,53.737c3.873,0,7.667-0.517,11.353-1.504c-11.874,37.213-9.673,69.295,7.366,77.658
		c21.354,10.481,57.924-20.26,81.682-68.662C3691.253,1487.654,3693.201,1439.919,3671.848,1429.438z"/>
	<path style="fill:#95AD3D;" d="M3645.544,1625.823c-3.969-2.08-8.407-2.688-12.902-2.024c2.998-5.071,5.762-10.468,8.223-16.162
		c19.504-45.126,12.894-91.399-14.765-103.353c-12.862-5.559-28.012-2.713-42.5,6.457c-1.094-39.332-14.359-69.017-37.057-75.204
		c-25.26-6.886-55.219,17.233-76.943,57.82c-9.864-59.338-40.606-102.62-77.01-102.62c-24.461,0-46.365,19.546-61.1,50.37
		c-26.584-62.944-65.629-102.76-99.281-95.319c-36.44,8.056-55.255,69.016-48.805,145.554
		c-20.672-16.412-41.309-22.826-57.44-15.476c-26.428,12.042-32.926,57.438-19.046,110.525c-7.889-1.052-15.114,0.179-21.086,4.026
		c-14.81,9.54-18.175,32.737-10.904,59.366c-4.231,7.431-6.738,16.659-6.738,26.659c0,24.581,15.144,44.507,33.825,44.507
		c4.617,0,9.017-1.221,13.027-3.425c23.529,23.301,50.253,33.164,67.06,22.338c5.765-3.714,9.792-9.5,12.137-16.75
		c17.59,11.49,34.682,15.27,48.477,8.983c13.165-5.999,21.383-20.274,24.603-39.653c14.969,12.215,30.347,17.685,44.739,14.503
		c18.406-4.069,32.311-21.644,40.74-47.896c11.731,11.98,25.314,18.829,39.793,18.829c19.866,0,38.045-12.896,52.068-34.25
		c5.604,23.258,16.986,39.599,33.16,44.008c16.781,4.575,35.639-4.534,52.777-23.066c-0.492,1.507-0.958,3.035-1.392,4.586
		c-10.245,36.655,0.021,71.561,22.931,77.964c22.909,6.403,49.786-18.121,60.031-54.776c0.514-1.834,0.969-3.664,1.379-5.487
		c0.004,0.002,0.006,0.003,0.009,0.005c12.642,6.625,30.051-1.667,38.885-18.523S3658.186,1632.448,3645.544,1625.823z"/>
	<g>
		<path style="fill:#AAD63E;" d="M3147.17,1649.515c12.583,21.794,13.43,44.862,1.892,51.524
			c-11.538,6.661-31.092-5.606-43.675-27.4s-13.43-44.862-1.892-51.523S3134.587,1627.721,3147.17,1649.515z"/>
		<path style="fill:#AAD63E;" d="M3153.614,1598.195c0,5.947-4.5,10.768-10.05,10.768c-5.551,0-10.051-4.82-10.051-10.768
			c0-5.947,4.5-10.768,10.051-10.768C3149.114,1587.428,3153.614,1592.249,3153.614,1598.195z"/>
		
			<ellipse transform="matrix(0.7071 -0.7071 0.7071 0.7071 -24.2844 3008.55)" style="fill:#AAD63E;" cx="3619.499" cy="1533.589" rx="9.332" ry="9.332"/>
		<path style="fill:#AAD63E;" d="M3646.059,1660.648c0,6.343-3.535,11.485-7.896,11.485c-4.36,0-7.896-5.142-7.896-11.485
			s3.535-11.485,7.896-11.485C3642.523,1649.163,3646.059,1654.305,3646.059,1660.648z"/>
		<path style="fill:#AAD63E;" d="M3625.338,1600.194c-6.076,23.408-19.401,40.204-29.763,37.514
			c-10.36-2.689-13.834-23.846-7.758-47.254s19.401-40.204,29.763-37.515C3627.94,1555.629,3631.414,1576.786,3625.338,1600.194z"/>
		<path style="fill:#AAD63E;" d="M3433.575,1451.036c0,15.065-7.392,27.278-16.51,27.278c-9.119,0-16.511-12.213-16.511-27.278
			s7.392-27.278,16.511-27.278C3426.184,1423.758,3433.575,1435.971,3433.575,1451.036z"/>
		<path style="fill:#7EB741;" d="M3271.341,1245.731c0,14.272-8.355,25.842-18.663,25.842c-10.309,0-18.664-11.57-18.664-25.842
			c0-14.273,8.355-25.843,18.664-25.843C3262.985,1219.888,3271.341,1231.458,3271.341,1245.731z"/>
		<path style="fill:#7EB741;" d="M3318.72,1178.971c0,5.947-4.821,10.768-10.769,10.768c-5.946,0-10.768-4.821-10.768-10.768
			s4.821-10.768,10.768-10.768C3313.898,1168.203,3318.72,1173.024,3318.72,1178.971z"/>
		<path style="fill:#7EB741;" d="M3420.654,1126.567c0,19.427-7.393,35.175-16.511,35.175s-16.511-15.748-16.511-35.175
			c0-19.426,7.393-35.174,16.511-35.174S3420.654,1107.141,3420.654,1126.567z"/>
		<path style="fill:#7EB741;" d="M3500.743,1185.452c-3.698,17.047-12.665,29.572-20.026,27.975s-10.33-16.712-6.632-33.759
			c3.699-17.048,12.665-29.572,20.027-27.975C3501.474,1153.29,3504.442,1168.405,3500.743,1185.452z"/>
		<path style="fill:#6EA01F;" d="M3535.903,1324.468c-6.283,20.466-21.515,33.944-34.022,30.105
			c-12.507-3.839-17.553-23.543-11.27-44.009c6.282-20.466,21.514-33.945,34.021-30.106
			C3537.14,1284.298,3542.186,1304.001,3535.903,1324.468z"/>
		<path style="fill:#6EA01F;" d="M3665.945,1483.39c-2.892,14.786-10.282,25.784-16.507,24.567
			c-6.226-1.218-8.929-14.19-6.037-28.976s10.282-25.784,16.508-24.567S3668.837,1468.605,3665.945,1483.39z"/>
		<ellipse style="fill:#6EA01F;" cx="3145" cy="1397.197" rx="11.486" ry="12.204"/>
		<ellipse style="fill:#6EA01F;" cx="3587.195" cy="1282.341" rx="8.614" ry="9.332"/>
	</g>
</g>
<g id="Tree_x5F_01">
	<path style="fill:#7A6059;" d="M3688.1,2554.798c62.205-280.941-96.74-292.402-92.746-452.139
		c2.274-90.973,72.166-122.29,65.955-209.237c-2.274-31.84-23.041-54.396-23.041-54.396
		c-108.869-50.222-92.949-59.319-92.949-59.319s59.133,45.486,84.15,38.663c25.018-6.822,4.549-52.31,4.549-52.31
		c-43.213-52.309-22.744-129.636-22.744-129.636h11.372c-30.703,72.778,31.794,154.237,40.938,141.008
		c53.446-77.327,0-181.946,0-181.946h13.646c43.212,104.619-4.549,199.003-2.843,215.492c2.157,20.857-11.125,30.532,2.843,41.507
		c13.563,10.657,47.761-54.016,108.599-126.225c25.315-30.047,14.214-73.347,14.214-73.347l6.823-0.569
		c22.743,59.132-63.573,129.082-51.172,125.656c119.402-32.978,130.773-112.01,130.773-112.01l15.92-2.274
		c-62.165,123.95-135.891,116.559-151.811,130.205c-15.921,13.646-67.093,75.621-64.497,133.102
		c1.475,32.659,45.165,13.402,68.667,1.272c27.007-13.939,54.688-26.907,73.156-38.663c11.009-7.008,20.09-17.058,20.09-17.058
		c27.292-23.881,29.377-79.223,29.377-79.223c6.444,56.101-20.824,82.891-11.371,76.569c89.836-60.08,97.795-135.701,97.795-135.701
		c-4.549,147.831-223.505,184.874-290.506,257.618c-29.85,32.407-82.989,64.832-11.979,219.989
		c29.11,63.605,79.602,86.424,90.973,170.573c11.372,84.15,0,175.123,0,175.123L3688.1,2554.798z"/>
	<path style="fill:#7EB741;" d="M4097.584,1310.353c-11.449-19.832-40.21-24.938-65.964-12.454
		c-6.141-7.596-13.065-13.875-20.577-18.524c9.173-55.459-0.031-100.066-25.902-109.166c-21.438-7.541-49.213,11.096-73.787,45.576
		c3.29-24.456,3.638-48.011,1.454-69.518c13.175,4.18,32.498-12.049,44.026-37.412c11.972-26.337,11.001-52.539-2.167-58.525
		c-13.169-5.985-33.548,10.512-45.52,36.849c-2.241,4.93-4.028,9.854-5.366,14.643c-11.256-34.712-31.031-58.303-56.355-62.164
		c-31.399-4.787-63.703,21.914-86.596,66.149c-9.372-11.941-21.013-19.015-33.626-19.015c-9.878,0-19.157,4.343-27.22,11.959
		c-9.608-56.029-39.798-97.481-67.998-92.943c-25.691,4.134-40.975,45.036-37.097,94.791
		c-20.405-25.598-45.478-39.046-68.447-33.335c-32.144,7.992-50.351,51.061-47.23,103.55c-5.386-2.163-10.716-2.793-15.84-1.669
		c-6.927,1.52-12.854,6.103-17.668,13.117c-8.362-20.507-25.493-33.205-41.146-29.214c-17.819,4.543-26.972,28.993-20.44,54.609
		c6.531,25.617,26.271,42.7,44.092,38.156c1.006-0.256,1.979-0.585,2.929-0.965c-0.159,18.308,1.95,38.729,6.596,59.896
		c15.03,68.482,50.876,118.805,80.065,112.399c25.215-5.534,37.209-51.589,30.322-108.171c13.291,8.021,27.169,11.061,40.354,7.782
		c34.669-8.62,53.127-58.044,46.097-116.083c9.761,9.149,20.366,13.67,30.703,12.006c2.874-0.462,5.615-1.393,8.217-2.736
		c6.989,39.165,28.391,67.674,53.712,67.674c1.487,0,2.961-0.1,4.42-0.293c7.203,54.217,30.997,93.828,64.487,98.934
		c21.603,3.293,43.631-8.323,62.73-30.293c-9.445,55.915-0.284,100.994,25.74,110.147c8.582,3.019,18.181,1.839,28.183-2.869
		c14.417,31.712,39.039,52.61,66.996,52.61c44.428,0,80.443-52.768,80.443-117.859c0-2.145-0.042-4.276-0.118-6.393
		c3.671-1.36,7.315-3.054,10.875-5.109C4097.805,1360.99,4109.725,1331.38,4097.584,1310.353z"/>
	<path style="fill:#7EB741;" d="M4097.584,1310.353c-11.449-19.832-40.21-24.938-65.964-12.454
		c-6.141-7.596-13.065-13.875-20.577-18.524c9.173-55.459-0.031-100.066-25.902-109.166c-21.438-7.541-49.213,11.096-73.787,45.576
		c3.29-24.456,3.638-48.011,1.454-69.518c13.175,4.18,32.498-12.049,44.026-37.412c11.972-26.337,11.001-52.539-2.167-58.525
		c-13.169-5.985-33.548,10.512-45.52,36.849c-2.241,4.93-4.028,9.854-5.366,14.643c-11.256-34.712-31.031-58.303-56.355-62.164
		c-31.399-4.787-63.703,21.914-86.596,66.149c-9.372-11.941-21.013-19.015-33.626-19.015c-9.878,0-19.157,4.343-27.22,11.959
		c-9.608-56.029-39.798-97.481-67.998-92.943c-25.691,4.134-40.975,45.036-37.097,94.791
		c-20.405-25.598-45.478-39.046-68.447-33.335c-32.144,7.992-50.351,51.061-47.23,103.55c-5.386-2.163-10.716-2.793-15.84-1.669
		c-6.927,1.52-12.854,6.103-17.668,13.117c-8.362-20.507-25.493-33.205-41.146-29.214c-17.819,4.543-26.972,28.993-20.44,54.609
		c6.531,25.617,26.271,42.7,44.092,38.156c1.006-0.256,1.979-0.585,2.929-0.965c-0.159,18.308,1.95,38.729,6.596,59.896
		c15.03,68.482,50.876,118.805,80.065,112.399c25.215-5.534,37.209-51.589,30.322-108.171c13.291,8.021,27.169,11.061,40.354,7.782
		c34.669-8.62,53.127-58.044,46.097-116.083c9.761,9.149,20.366,13.67,30.703,12.006c2.874-0.462,5.615-1.393,8.217-2.736
		c6.989,39.165,28.391,67.674,53.712,67.674c1.487,0,2.961-0.1,4.42-0.293c7.203,54.217,30.997,93.828,64.487,98.934
		c21.603,3.293,43.631-8.323,62.73-30.293c-9.445,55.915-0.284,100.994,25.74,110.147c8.582,3.019,18.181,1.839,28.183-2.869
		c14.417,31.712,39.039,52.61,66.996,52.61c44.428,0,80.443-52.768,80.443-117.859c0-2.145-0.042-4.276-0.118-6.393
		c3.671-1.36,7.315-3.054,10.875-5.109C4097.805,1360.99,4109.725,1331.38,4097.584,1310.353z"/>
	<path style="fill:#6EA01F;" d="M4097.584,1310.353c-11.449-19.832-40.21-24.938-65.964-12.454
		c-6.141-7.596-13.065-13.875-20.577-18.524c9.173-55.459-0.031-100.066-25.902-109.166c-21.438-7.541-49.213,11.096-73.787,45.576
		c3.29-24.456,3.638-48.011,1.454-69.518c13.175,4.18,32.498-12.049,44.026-37.412c11.972-26.337,11.001-52.539-2.167-58.525
		c-13.169-5.985-33.548,10.512-45.52,36.849c-2.241,4.93-4.028,9.854-5.366,14.643c-11.256-34.712-31.031-58.303-56.355-62.164
		c-31.399-4.787-63.703,21.914-86.596,66.149c-9.372-11.941-21.013-19.015-33.626-19.015c-9.878,0-19.157,4.343-27.22,11.959
		c-9.608-56.029-39.798-97.481-67.998-92.943c-25.691,4.134-40.975,45.036-37.097,94.791
		c-20.405-25.598-45.478-39.046-68.447-33.335c-32.144,7.992-50.351,51.061-47.23,103.55c-5.386-2.163-10.716-2.793-15.84-1.669
		c-6.927,1.52-12.854,6.103-17.668,13.117c-8.362-20.507-25.493-33.205-41.146-29.214c-17.819,4.543-26.972,28.993-20.44,54.609
		c6.531,25.617,26.271,42.7,44.092,38.156c1.006-0.256,1.979-0.585,2.929-0.965c-0.159,18.308,1.95,38.729,6.596,59.896
		c15.03,68.482,50.876,118.805,80.065,112.399c25.215-5.534,37.209-51.589,30.322-108.171c13.291,8.021,27.169,11.061,40.354,7.782
		c34.669-8.62,53.127-58.044,46.097-116.083c9.761,9.149,20.366,13.67,30.703,12.006c2.874-0.462,5.615-1.393,8.217-2.736
		c6.989,39.165,28.391,67.674,53.712,67.674c1.487,0,2.961-0.1,4.42-0.293c7.203,54.217,30.997,93.828,64.487,98.934
		c21.603,3.293,43.631-8.323,62.73-30.293c-9.445,55.915-0.284,100.994,25.74,110.147c8.582,3.019,18.181,1.839,28.183-2.869
		c14.417,31.712,39.039,52.61,66.996,52.61c44.428,0,80.443-52.768,80.443-117.859c0-2.145-0.042-4.276-0.118-6.393
		c3.671-1.36,7.315-3.054,10.875-5.109C4097.805,1360.99,4109.725,1331.38,4097.584,1310.353z"/>
	<path style="fill:#7EB741;" d="M4099.17,1320.654c-21.745-10.612-50.43,0.668-73.154,25.904
		c7.852-41.33-1.208-77.412-26.885-92.237c-35.238-20.345-89.498,6.429-126.566,60.297c-1.111-43.408-19.503-78.043-48.915-85.102
		c-16.915-4.06-34.72,1.668-50.735,14.525c-6.332-85.569-39.311-150.795-79.05-150.795c-16.079,0-31.049,10.685-43.599,29.067
		c-5.243-3.297-11.316-5.191-17.796-5.191c-19.779,0-35.813,17.562-35.813,39.225c0,17.675,10.677,32.616,25.351,37.519
		c-2.271,10.336-4.113,21.234-5.482,32.572c-15.313-14.747-33.394-22.129-51.154-18.877c-35.689,6.534-57.38,53.676-51.009,107.762
		c-28.424-16.697-58.661-20.29-82.276-6.656c-29.323,16.93-40.753,55.979-33.036,99.226c-19.731,15.84-28.569,41.142-20.125,63.812
		c9.984,26.8,40.642,40.579,70.915,33.132c35.662,36.073,80.933,50.115,113.563,31.276c33.199-19.168,43.466-66.689,28.973-116.553
		c3.892,0.275,7.8,0.081,11.693-0.632c12.486-2.286,23.259-9.543,31.717-20.329c14.602,34.615,35.224,56.194,58.08,56.194
		c14.69,0,28.454-8.921,40.294-24.479c8.385,14.498,20.15,24.591,34.568,28.051c23.283,5.588,48.255-7.358,67.916-31.932
		c1.314,26.361,11.168,47.725,29.467,58.29c34.6,19.976,87.54-5.477,124.537-57.4c-2.296,28.671,6.77,52.945,26.036,62.348
		c29.602,14.447,72.063-11.677,94.841-58.348C4134.302,1384.647,4128.771,1335.101,4099.17,1320.654z"/>
	<path style="fill:#6EA01F;" d="M4126.981,1636.585c5.481-12.056,10.231-24.825,14.112-38.201
		c30.16-103.976-3.561-205.139-75.318-225.955c-38.457-11.155-80.033,3.033-114.982,34.605c-6.103-4.096-12.725-7.118-19.833-8.919
		c-25.78-6.533-53.566,4.034-78.722,26.823c-23.105-46.673-60.43-76.993-102.552-76.993c-25.043,0-48.39,10.72-68.063,29.217
		c-30.456-61.48-72.832-98.799-113.887-92.786c-49.081,7.188-82.21,74.25-87.107,163.314c-18.173-6.121-36.238-6.656-52.859-0.523
		c-40.903,15.092-62.246,66.55-59.248,129.303c-5.266-0.217-10.396,0.583-15.256,2.516c-29.254,11.639-37.602,59.702-18.644,107.352
		c18.958,47.65,58.041,76.842,87.295,65.203c0.968-0.385,1.911-0.813,2.833-1.275c-0.773,3.272-1.195,6.682-1.195,10.191
		c0,24.397,19.777,44.175,44.175,44.175c10.354,0,19.87-3.572,27.401-9.539c21.421,9.535,43.023,11.576,62.618,4.346
		c19.751-7.288,34.937-23.063,45.029-44.485c11.435,4.712,23.059,6.44,34.578,4.753c24.936-3.652,45.753-22.761,60.844-52.355
		c15.738,10.331,33.157,16.081,51.486,16.081c12.164,0,23.928-2.532,35.065-7.252c11.596,26.783,29.55,45.424,52.61,51.269
		c27.169,6.885,56.565-5.215,82.763-30.605c-4.401,17.684-2.064,33.678,8.059,43.8c17.216,17.216,51.415,11.91,82.032-10.77
		c3.532,3.399,7.608,6.175,12.198,8.178c27.077,11.817,61.707-7.656,77.347-43.494c2.916-6.682,4.966-13.461,6.195-20.146
		c20.292-2.598,36.031-21.18,36.031-43.731C4141.987,1656.936,4136.141,1644.665,4126.981,1636.585z"/>
	<g>
		<path style="fill:#AAD63E;" d="M3551.684,1499.921c6.533,22.633,2.214,43.757-9.648,47.181s-26.773-12.148-33.307-34.782
			s-2.213-43.757,9.648-47.181C3530.238,1461.715,3545.15,1477.288,3551.684,1499.921z"/>
		<ellipse style="fill:#AAD63E;" cx="3545.318" cy="1444.244" rx="13.646" ry="14.783"/>
		<path style="fill:#AAD63E;" d="M4086.606,1435.146c0,11.933-7.128,21.606-15.92,21.606c-8.793,0-15.92-9.673-15.92-21.606
			s7.127-21.606,15.92-21.606C4079.479,1413.54,4086.606,1423.214,4086.606,1435.146z"/>
		<ellipse style="fill:#AAD63E;" cx="4118.447" cy="1669.401" rx="9.098" ry="19.332"/>
		<ellipse style="fill:#AAD63E;" cx="3950.147" cy="1769.472" rx="13.646" ry="14.783"/>
		<path style="fill:#AAD63E;" d="M4061.266,1639.922c-11.926,27.687-34.686,44.492-50.836,37.535
			c-16.15-6.956-19.575-35.04-7.649-62.727s34.686-44.492,50.837-37.535C4069.768,1584.152,4073.191,1612.236,4061.266,1639.922z"/>
		<path style="fill:#AAD63E;" d="M3413.46,1656.578c13.426,30.458,13.595,59.873,0.376,65.699
			c-13.218,5.826-34.816-14.142-48.242-44.601c-13.425-30.458-13.593-59.873-0.375-65.699
			C3378.437,1606.151,3400.035,1626.12,3413.46,1656.578z"/>
		<path style="fill:#6EA01F;" d="M3695.686,1190.606c9.703,23.852,6.252,47.792-7.71,53.471c-13.962,5.68-33.146-9.05-42.85-32.902
			s-6.251-47.791,7.711-53.471S3685.982,1166.755,3695.686,1190.606z"/>
		<path style="fill:#6EA01F;" d="M4009.715,1313.098c-7.609,17.236-22.626,27.304-33.543,22.485
			c-10.916-4.819-13.599-22.698-5.99-39.935s22.626-27.303,33.542-22.485C4014.641,1277.981,4017.322,1295.861,4009.715,1313.098z"
			/>
		<path style="fill:#AAD63E;" d="M3427.043,1179.854c7.536,13.054,7.032,27.454-1.127,32.165
			c-8.158,4.71-20.881-2.053-28.418-15.107c-7.536-13.054-7.031-27.454,1.127-32.164
			C3406.783,1160.037,3419.506,1166.8,3427.043,1179.854z"/>
		<path style="fill:#AAD63E;" d="M3956.684,1087.019c-2.84,10.292-8.578,17.687-12.815,16.518
			c-4.238-1.169-5.371-10.461-2.531-20.753s8.578-17.687,12.816-16.518C3958.391,1067.435,3959.523,1076.727,3956.684,1087.019z"/>
	</g>
	<path style="fill:#66504C;" d="M3752.281,2557.523c0,0,11.372-90.973,0-175.123c-2.093-15.492-5.517-28.901-9.885-40.874
		c-2.803-0.932-5.674-1.466-8.605-1.561c-14.035-0.452-27.357,9.074-38.559,25.655c10.317,46.727,11.241,106.194-7.133,189.177
		L3752.281,2557.523z"/>
	<path style="fill:#846863;" d="M3626.154,2132.435c-2.673-33.54-14.242-60.423-26.613-63.262
		c-2.369,10.286-3.885,21.352-4.188,33.486c-0.936,37.427,7.074,66.713,19.087,93.233
		C3623.433,2186.509,3628.463,2161.399,3626.154,2132.435z"/>
</g>
</svg>
